<svg width="28" height="28" viewBox="0 0 28 28" fill="none" xmlns="http://www.w3.org/2000/svg">
<path d="M14 28C21.732 28 28 21.732 28 14C28 6.26801 21.732 0 14 0C6.26801 0 0 6.26801 0 14C0 21.732 6.26801 28 14 28Z" fill="#F5F5FF"/>
<path d="M10.7917 16.9166H17.1088C17.6629 16.9166 17.94 16.9166 18.1658 16.8165C18.3649 16.7283 18.5353 16.586 18.6578 16.4059C18.7966 16.2017 18.8462 15.9291 18.9453 15.3839L19.7333 11.0501C19.7677 10.8611 19.7848 10.7667 19.7583 10.6929C19.735 10.6282 19.6896 10.5738 19.6301 10.5393C19.5622 10.5 19.4662 10.5 19.2742 10.5H9.91674M8.16666 8.16663H8.93456C9.07613 8.16663 9.14691 8.16663 9.20416 8.19248C9.25462 8.21528 9.29754 8.25196 9.32793 8.29824C9.3624 8.35076 9.37344 8.42067 9.39552 8.56051L11.0211 18.8561C11.0432 18.9959 11.0543 19.0658 11.0887 19.1183C11.1191 19.1646 11.162 19.2013 11.2125 19.2241C11.2697 19.25 11.3405 19.25 11.4821 19.25H18.0833" stroke="black" stroke-width="1.16667" stroke-linecap="round" stroke-linejoin="round"/>
</svg>
