<svg width="28" height="28" viewBox="0 0 28 28" fill="none" xmlns="http://www.w3.org/2000/svg">
<circle cx="14" cy="14" r="14" fill="#F5F5FF"/>
<path d="M15.467 11.1336C15.2525 10.9191 15.1452 10.8118 15.105 10.6881C15.0697 10.5793 15.0697 10.4622 15.105 10.3534C15.1452 10.2297 15.2525 10.1224 15.467 9.90793L17.0044 8.37047C16.5964 8.18596 16.1436 8.08325 15.6667 8.08325C13.8717 8.08325 12.4167 9.53833 12.4167 11.3333C12.4167 11.5992 12.4486 11.8577 12.5089 12.1052C12.5734 12.3701 12.6057 12.5026 12.6 12.5863C12.594 12.6739 12.5809 12.7205 12.5405 12.7985C12.5019 12.873 12.428 12.947 12.2801 13.0949L8.89583 16.4791C8.4471 16.9278 8.4471 17.6554 8.89583 18.1041C9.34456 18.5528 10.0721 18.5528 10.5208 18.1041L13.9051 14.7199C14.053 14.572 14.1269 14.498 14.2014 14.4594C14.2794 14.419 14.326 14.4059 14.4136 14.3999C14.4973 14.3942 14.6298 14.4265 14.8947 14.491C15.1422 14.5513 15.4007 14.5833 15.6667 14.5833C17.4616 14.5833 18.9167 13.1282 18.9167 11.3333C18.9167 10.8564 18.8139 10.4035 18.6294 9.99547L17.092 11.5329C16.8775 11.7474 16.7702 11.8547 16.6465 11.8949C16.5378 11.9302 16.4206 11.9302 16.3118 11.8949C16.1881 11.8547 16.0808 11.7474 15.8663 11.5329L15.467 11.1336Z" stroke="#5243C2" stroke-width="1.08333" stroke-linecap="round" stroke-linejoin="round"/>
</svg>
